<mxfile host="app.diagrams.net" agent="Mozilla/5.0 (Windows NT 10.0; Win64; x64) AppleWebKit/537.36 (KHTML, like Gecko) Chrome/139.0.0.0 Safari/537.36" version="28.1.1">
  <diagram name="Página-1" id="TMjH7Z38N7xaehMKCDln">
    <mxGraphModel dx="1426" dy="751" grid="1" gridSize="10" guides="1" tooltips="1" connect="1" arrows="1" fold="1" page="1" pageScale="1" pageWidth="2336" pageHeight="1654" math="0" shadow="0">
      <root>
        <mxCell id="0" />
        <mxCell id="1" parent="0" />
        <mxCell id="0l798G4drUY80iiuXOU_-57" value="&lt;b&gt;&lt;font color=&quot;#384661&quot;&gt;&amp;nbsp; &amp;nbsp; &amp;nbsp; &amp;nbsp;&lt;br&gt;&lt;br&gt;&amp;nbsp; &amp;nbsp; &amp;nbsp; fog&lt;/font&gt;&lt;/b&gt;" style="ellipse;whiteSpace=wrap;html=1;rounded=1;shadow=0;comic=0;labelBackgroundColor=none;strokeColor=#384661;strokeWidth=2;fillColor=#CCFFCC;fontFamily=Helvetica;fontSize=22;fontColor=#000000;verticalAlign=middle;gradientColor=none;gradientDirection=north;spacingBottom=36;align=center;" parent="1" vertex="1">
          <mxGeometry x="960" y="275" width="580" height="250" as="geometry" />
        </mxCell>
        <mxCell id="0l798G4drUY80iiuXOU_-2" value="&lt;b&gt;&lt;font color=&quot;#384661&quot;&gt;&amp;nbsp; &amp;nbsp; &amp;nbsp; &amp;nbsp;&lt;br&gt;&lt;br&gt;&amp;nbsp; &amp;nbsp; &amp;nbsp; µGrid&lt;/font&gt;&lt;/b&gt;" style="ellipse;whiteSpace=wrap;html=1;rounded=1;shadow=0;comic=0;labelBackgroundColor=none;strokeColor=#384661;strokeWidth=2;fillColor=#CCFFCC;fontFamily=Helvetica;fontSize=22;fontColor=#000000;verticalAlign=middle;gradientColor=none;gradientDirection=north;spacingBottom=36;align=center;" parent="1" vertex="1">
          <mxGeometry x="80" y="275" width="580" height="250" as="geometry" />
        </mxCell>
        <mxCell id="0l798G4drUY80iiuXOU_-3" value="" style="ellipse;shape=cloud;whiteSpace=wrap;html=1;rounded=1;shadow=0;comic=0;strokeColor=none;strokeWidth=2;fillColor=#3399FF;fontColor=#0066CC;" parent="1" vertex="1">
          <mxGeometry x="231" y="370" width="110" height="35" as="geometry" />
        </mxCell>
        <mxCell id="0l798G4drUY80iiuXOU_-4" style="edgeStyle=none;rounded=0;html=1;labelBackgroundColor=none;endArrow=none;strokeColor=#384661;strokeWidth=3;fontFamily=Verdana;fontSize=28;fontColor=#0066CC;" parent="1" target="0l798G4drUY80iiuXOU_-7" edge="1">
          <mxGeometry relative="1" as="geometry">
            <mxPoint x="302" y="240" as="sourcePoint" />
          </mxGeometry>
        </mxCell>
        <mxCell id="0l798G4drUY80iiuXOU_-5" value="" style="fontColor=#0066CC;verticalAlign=top;verticalLabelPosition=bottom;labelPosition=center;align=center;html=1;fillColor=#FFFFFF;strokeColor=#000000;gradientColor=none;gradientDirection=north;strokeWidth=2;shape=mxgraph.networks.radio_tower;rounded=1;shadow=0;comic=0;labelBackgroundColor=none;" parent="1" vertex="1">
          <mxGeometry x="247" y="120" width="55" height="100" as="geometry" />
        </mxCell>
        <mxCell id="0l798G4drUY80iiuXOU_-6" style="edgeStyle=none;rounded=0;html=1;labelBackgroundColor=none;endArrow=none;strokeColor=#384661;strokeWidth=3;fontFamily=Verdana;fontSize=28;fontColor=#0066CC;" parent="1" edge="1">
          <mxGeometry relative="1" as="geometry">
            <mxPoint x="422" y="490" as="sourcePoint" />
            <mxPoint x="522" y="430" as="targetPoint" />
          </mxGeometry>
        </mxCell>
        <mxCell id="0l798G4drUY80iiuXOU_-7" value="" style="fontColor=#0066CC;verticalAlign=top;verticalLabelPosition=bottom;labelPosition=center;align=center;html=1;fillColor=#CCCCCC;strokeColor=#000000;gradientColor=none;gradientDirection=north;strokeWidth=2;shape=mxgraph.networks.business_center;rounded=1;shadow=0;comic=0;labelBackgroundColor=none;" parent="1" vertex="1">
          <mxGeometry x="315" y="260" width="90" height="100" as="geometry" />
        </mxCell>
        <mxCell id="0l798G4drUY80iiuXOU_-8" style="edgeStyle=none;rounded=0;html=1;labelBackgroundColor=none;endArrow=none;strokeColor=#384661;strokeWidth=3;fontFamily=Verdana;fontSize=28;fontColor=#0066CC;" parent="1" edge="1">
          <mxGeometry relative="1" as="geometry">
            <mxPoint x="302" y="480" as="sourcePoint" />
            <mxPoint x="212" y="450" as="targetPoint" />
          </mxGeometry>
        </mxCell>
        <mxCell id="0l798G4drUY80iiuXOU_-9" value="" style="fontColor=#0066CC;verticalAlign=top;verticalLabelPosition=bottom;labelPosition=center;align=center;html=1;fillColor=#CCCCCC;strokeColor=#000000;gradientColor=none;gradientDirection=north;strokeWidth=2;shape=mxgraph.networks.business_center;rounded=1;shadow=0;comic=0;labelBackgroundColor=none;" parent="1" vertex="1">
          <mxGeometry x="320" y="450" width="90" height="100" as="geometry" />
        </mxCell>
        <mxCell id="0l798G4drUY80iiuXOU_-10" style="edgeStyle=none;rounded=0;html=1;labelBackgroundColor=none;endArrow=none;strokeColor=#384661;strokeWidth=3;fontFamily=Verdana;fontSize=28;fontColor=#0066CC;" parent="1" edge="1">
          <mxGeometry relative="1" as="geometry">
            <mxPoint x="152" y="340" as="sourcePoint" />
            <mxPoint x="252" y="240" as="targetPoint" />
          </mxGeometry>
        </mxCell>
        <mxCell id="0l798G4drUY80iiuXOU_-11" value="" style="fontColor=#0066CC;verticalAlign=top;verticalLabelPosition=bottom;labelPosition=center;align=center;html=1;fillColor=#CCCCCC;strokeColor=#000000;gradientColor=none;gradientDirection=north;strokeWidth=2;shape=mxgraph.networks.business_center;rounded=1;shadow=0;comic=0;labelBackgroundColor=none;" parent="1" vertex="1">
          <mxGeometry x="95" y="350" width="90" height="100" as="geometry" />
        </mxCell>
        <mxCell id="0l798G4drUY80iiuXOU_-12" value="" style="fontColor=#0066CC;verticalAlign=top;verticalLabelPosition=bottom;labelPosition=center;align=center;html=1;fillColor=#CCCCCC;strokeColor=#000000;gradientColor=none;gradientDirection=north;strokeWidth=2;shape=mxgraph.networks.community;rounded=1;shadow=0;comic=0;labelBackgroundColor=none;" parent="1" vertex="1">
          <mxGeometry x="545" y="360" width="95" height="100" as="geometry" />
        </mxCell>
        <mxCell id="0l798G4drUY80iiuXOU_-13" value="" style="shape=image;html=1;verticalAlign=top;verticalLabelPosition=bottom;labelBackgroundColor=#ffffff;imageAspect=0;aspect=fixed;image=https://cdn0.iconfinder.com/data/icons/fatcow/32x32/tree.png;rounded=1;shadow=0;comic=0;strokeColor=#6881B3;strokeWidth=2;fillColor=#CCFFCC;fontColor=#0066CC;" parent="1" vertex="1">
          <mxGeometry x="422" y="318" width="32" height="32" as="geometry" />
        </mxCell>
        <mxCell id="0l798G4drUY80iiuXOU_-14" value="" style="shape=image;html=1;verticalAlign=top;verticalLabelPosition=bottom;labelBackgroundColor=#ffffff;imageAspect=0;aspect=fixed;image=https://cdn0.iconfinder.com/data/icons/fatcow/32x32/tree.png;rounded=1;shadow=0;comic=0;strokeColor=#6881B3;strokeWidth=2;fillColor=#CCFFCC;fontColor=#0066CC;" parent="1" vertex="1">
          <mxGeometry x="454" y="328" width="32" height="32" as="geometry" />
        </mxCell>
        <mxCell id="0l798G4drUY80iiuXOU_-15" value="" style="shape=image;html=1;verticalAlign=top;verticalLabelPosition=bottom;labelBackgroundColor=#ffffff;imageAspect=0;aspect=fixed;image=https://cdn0.iconfinder.com/data/icons/fatcow/32x32/tree.png;rounded=1;shadow=0;comic=0;strokeColor=#6881B3;strokeWidth=2;fillColor=#CCFFCC;fontColor=#0066CC;" parent="1" vertex="1">
          <mxGeometry x="425" y="344" width="32" height="32" as="geometry" />
        </mxCell>
        <mxCell id="0l798G4drUY80iiuXOU_-16" value="" style="shape=image;html=1;verticalAlign=top;verticalLabelPosition=bottom;labelBackgroundColor=#ffffff;imageAspect=0;aspect=fixed;image=https://cdn0.iconfinder.com/data/icons/fatcow/32x32/tree.png;rounded=1;shadow=0;comic=0;strokeColor=#6881B3;strokeWidth=2;fillColor=#CCFFCC;fontColor=#0066CC;" parent="1" vertex="1">
          <mxGeometry x="215" y="376" width="32" height="32" as="geometry" />
        </mxCell>
        <mxCell id="0l798G4drUY80iiuXOU_-17" value="" style="shape=image;html=1;verticalAlign=top;verticalLabelPosition=bottom;labelBackgroundColor=#ffffff;imageAspect=0;aspect=fixed;image=https://cdn0.iconfinder.com/data/icons/fatcow/32x32/tree.png;rounded=1;shadow=0;comic=0;strokeColor=#6881B3;strokeWidth=2;fillColor=#CCFFCC;fontColor=#0066CC;" parent="1" vertex="1">
          <mxGeometry x="270" y="496" width="32" height="32" as="geometry" />
        </mxCell>
        <mxCell id="0l798G4drUY80iiuXOU_-18" value="" style="shape=image;html=1;verticalAlign=top;verticalLabelPosition=bottom;labelBackgroundColor=#ffffff;imageAspect=0;aspect=fixed;image=https://cdn0.iconfinder.com/data/icons/fatcow/32x32/tree.png;rounded=1;shadow=0;comic=0;strokeColor=#6881B3;strokeWidth=2;fillColor=#CCFFCC;fontColor=#0066CC;" parent="1" vertex="1">
          <mxGeometry x="288" y="518" width="32" height="32" as="geometry" />
        </mxCell>
        <mxCell id="0l798G4drUY80iiuXOU_-19" value="" style="shape=image;html=1;verticalAlign=top;verticalLabelPosition=bottom;labelBackgroundColor=#ffffff;imageAspect=0;aspect=fixed;image=https://cdn0.iconfinder.com/data/icons/fatcow/32x32/tree.png;rounded=1;shadow=0;comic=0;strokeColor=#6881B3;strokeWidth=2;fillColor=#CCFFCC;fontColor=#0066CC;" parent="1" vertex="1">
          <mxGeometry x="228" y="390" width="32" height="32" as="geometry" />
        </mxCell>
        <mxCell id="0l798G4drUY80iiuXOU_-20" value="" style="shape=image;html=1;verticalAlign=top;verticalLabelPosition=bottom;labelBackgroundColor=#ffffff;imageAspect=0;aspect=fixed;image=https://cdn0.iconfinder.com/data/icons/fatcow/32x32/tree.png;rounded=1;shadow=0;comic=0;strokeColor=#6881B3;strokeWidth=2;fillColor=#CCFFCC;fontColor=#0066CC;" parent="1" vertex="1">
          <mxGeometry x="410" y="508" width="32" height="32" as="geometry" />
        </mxCell>
        <mxCell id="0l798G4drUY80iiuXOU_-21" value="" style="shape=image;html=1;verticalAlign=top;verticalLabelPosition=bottom;labelBackgroundColor=#ffffff;imageAspect=0;aspect=fixed;image=https://cdn0.iconfinder.com/data/icons/fatcow/32x32/tree.png;rounded=1;shadow=0;comic=0;strokeColor=#6881B3;strokeWidth=2;fillColor=#CCFFCC;fontColor=#0066CC;" parent="1" vertex="1">
          <mxGeometry x="442" y="496" width="32" height="32" as="geometry" />
        </mxCell>
        <mxCell id="0l798G4drUY80iiuXOU_-22" value="" style="shape=image;html=1;verticalAlign=top;verticalLabelPosition=bottom;labelBackgroundColor=#ffffff;imageAspect=0;aspect=fixed;image=https://cdn0.iconfinder.com/data/icons/fatcow/32x32/tree.png;rounded=1;shadow=0;comic=0;strokeColor=#6881B3;strokeWidth=2;fillColor=#CCFFCC;fontColor=#0066CC;" parent="1" vertex="1">
          <mxGeometry x="425" y="528" width="32" height="32" as="geometry" />
        </mxCell>
        <mxCell id="0l798G4drUY80iiuXOU_-23" value="" style="shape=image;html=1;verticalAlign=top;verticalLabelPosition=bottom;labelBackgroundColor=#ffffff;imageAspect=0;aspect=fixed;image=https://cdn0.iconfinder.com/data/icons/fatcow/32x32/tree.png;rounded=1;shadow=0;comic=0;strokeColor=#6881B3;strokeWidth=2;fillColor=#CCFFCC;fontColor=#0066CC;" parent="1" vertex="1">
          <mxGeometry x="532" y="450" width="32" height="32" as="geometry" />
        </mxCell>
        <mxCell id="0l798G4drUY80iiuXOU_-24" value="" style="shape=image;html=1;verticalAlign=top;verticalLabelPosition=bottom;labelBackgroundColor=#ffffff;imageAspect=0;aspect=fixed;image=https://cdn0.iconfinder.com/data/icons/fatcow/32x32/tree.png;rounded=1;shadow=0;comic=0;strokeColor=#6881B3;strokeWidth=2;fillColor=#CCFFCC;fontColor=#0066CC;" parent="1" vertex="1">
          <mxGeometry x="196" y="387" width="32" height="32" as="geometry" />
        </mxCell>
        <mxCell id="0l798G4drUY80iiuXOU_-25" value="&lt;b&gt;&lt;font style=&quot;font-size: 19px;&quot;&gt;Gateway&lt;/font&gt;&lt;/b&gt;" style="text;html=1;strokeColor=none;fillColor=none;align=center;verticalAlign=middle;whiteSpace=wrap;rounded=0;" parent="1" vertex="1">
          <mxGeometry x="247" y="80" width="60" height="30" as="geometry" />
        </mxCell>
        <mxCell id="0l798G4drUY80iiuXOU_-26" value="" style="shape=image;html=1;verticalAlign=top;verticalLabelPosition=bottom;labelBackgroundColor=#ffffff;imageAspect=0;aspect=fixed;image=https://cdn2.iconfinder.com/data/icons/business-and-education-1/512/133_Solar_Panel_Energy_technology_smart_city_technology_smart-128.png" parent="1" vertex="1">
          <mxGeometry x="612" y="460" width="48" height="48" as="geometry" />
        </mxCell>
        <mxCell id="0l798G4drUY80iiuXOU_-27" value="" style="shape=image;html=1;verticalAlign=top;verticalLabelPosition=bottom;labelBackgroundColor=#ffffff;imageAspect=0;aspect=fixed;image=https://cdn2.iconfinder.com/data/icons/business-and-education-1/512/133_Solar_Panel_Energy_technology_smart_city_technology_smart-128.png" parent="1" vertex="1">
          <mxGeometry x="387" y="550" width="38" height="38" as="geometry" />
        </mxCell>
        <mxCell id="0l798G4drUY80iiuXOU_-28" value="" style="shape=image;html=1;verticalAlign=top;verticalLabelPosition=bottom;labelBackgroundColor=#ffffff;imageAspect=0;aspect=fixed;image=https://cdn2.iconfinder.com/data/icons/business-and-education-1/512/133_Solar_Panel_Energy_technology_smart_city_technology_smart-128.png" parent="1" vertex="1">
          <mxGeometry x="148" y="460" width="48" height="48" as="geometry" />
        </mxCell>
        <mxCell id="0l798G4drUY80iiuXOU_-29" value="" style="endArrow=none;dashed=1;html=1;rounded=0;" parent="1" edge="1">
          <mxGeometry width="50" height="50" relative="1" as="geometry">
            <mxPoint x="800" y="610" as="sourcePoint" />
            <mxPoint x="800" y="90" as="targetPoint" />
          </mxGeometry>
        </mxCell>
        <mxCell id="0l798G4drUY80iiuXOU_-30" value="" style="image;sketch=0;aspect=fixed;html=1;points=[];align=center;fontSize=12;image=img/lib/mscae/Mobile_Engagement.svg;" parent="1" vertex="1">
          <mxGeometry x="950" y="485" width="34" height="50" as="geometry" />
        </mxCell>
        <mxCell id="0l798G4drUY80iiuXOU_-31" value="" style="image;sketch=0;aspect=fixed;html=1;points=[];align=center;fontSize=12;image=img/lib/mscae/App_Service_Mobile_App.svg;" parent="1" vertex="1">
          <mxGeometry x="1280" y="457" width="36.72" height="54" as="geometry" />
        </mxCell>
        <mxCell id="0l798G4drUY80iiuXOU_-32" value="" style="shape=image;html=1;verticalAlign=top;verticalLabelPosition=bottom;labelBackgroundColor=#ffffff;imageAspect=0;aspect=fixed;image=https://cdn2.iconfinder.com/data/icons/whcompare-isometric-web-hosting-servers/50/laptop-with-code-128.png" parent="1" vertex="1">
          <mxGeometry x="1040" y="397" width="88" height="88" as="geometry" />
        </mxCell>
        <mxCell id="0l798G4drUY80iiuXOU_-33" value="" style="shape=mxgraph.signs.transportation.car_3;html=1;pointerEvents=1;fillColor=#384661;strokeColor=none;verticalLabelPosition=bottom;verticalAlign=top;align=center;" parent="1" vertex="1">
          <mxGeometry x="1110" y="540" width="99" height="38" as="geometry" />
        </mxCell>
        <mxCell id="0l798G4drUY80iiuXOU_-34" value="" style="image;sketch=0;aspect=fixed;html=1;points=[];align=center;fontSize=12;image=img/lib/mscae/Data_Factory.svg;" parent="1" vertex="1">
          <mxGeometry x="1420" y="419" width="93" height="93" as="geometry" />
        </mxCell>
        <mxCell id="0l798G4drUY80iiuXOU_-35" value="" style="sketch=0;pointerEvents=1;shadow=0;dashed=0;html=1;strokeColor=none;fillColor=#384661;aspect=fixed;labelPosition=center;verticalLabelPosition=bottom;verticalAlign=top;align=center;outlineConnect=0;shape=mxgraph.vvd.cpu;strokeWidth=7;" parent="1" vertex="1">
          <mxGeometry x="1530" y="290" width="38" height="38" as="geometry" />
        </mxCell>
        <mxCell id="0l798G4drUY80iiuXOU_-36" value="&lt;b&gt;&lt;font color=&quot;#384661&quot; style=&quot;font-size: 27px;&quot;&gt;Cloud&lt;/font&gt;&lt;/b&gt;" style="ellipse;shape=cloud;whiteSpace=wrap;html=1;strokeColor=#384661;" parent="1" vertex="1">
          <mxGeometry x="1110" y="20" width="320" height="160" as="geometry" />
        </mxCell>
        <mxCell id="0l798G4drUY80iiuXOU_-37" value="" style="shape=mxgraph.cisco.routers.wireless_router;html=1;pointerEvents=1;dashed=0;fillColor=#036897;strokeColor=#ffffff;strokeWidth=2;verticalLabelPosition=bottom;verticalAlign=top;align=center;outlineConnect=0;" parent="1" vertex="1">
          <mxGeometry x="1040" y="180" width="60" height="61" as="geometry" />
        </mxCell>
        <mxCell id="0l798G4drUY80iiuXOU_-42" style="edgeStyle=none;rounded=0;html=1;labelBackgroundColor=none;endArrow=none;strokeColor=#384661;strokeWidth=3;fontFamily=Verdana;fontSize=28;fontColor=#0066CC;" parent="1" target="0l798G4drUY80iiuXOU_-36" edge="1">
          <mxGeometry relative="1" as="geometry">
            <mxPoint x="1108" y="204" as="sourcePoint" />
            <mxPoint x="1180" y="170" as="targetPoint" />
          </mxGeometry>
        </mxCell>
        <mxCell id="0l798G4drUY80iiuXOU_-50" value="" style="html=1;outlineConnect=0;fillColor=#CCCCCC;strokeColor=#6881B3;gradientColor=none;gradientDirection=north;strokeWidth=2;shape=mxgraph.networks.comm_link_edge;html=1;rounded=0;entryX=0;entryY=0.5;entryDx=0;entryDy=0;" parent="1" target="0l798G4drUY80iiuXOU_-32" edge="1">
          <mxGeometry width="100" height="100" relative="1" as="geometry">
            <mxPoint x="990" y="519" as="sourcePoint" />
            <mxPoint x="1080" y="559" as="targetPoint" />
          </mxGeometry>
        </mxCell>
        <mxCell id="0l798G4drUY80iiuXOU_-51" value="" style="html=1;outlineConnect=0;fillColor=#CCCCCC;strokeColor=#6881B3;gradientColor=none;gradientDirection=north;strokeWidth=2;shape=mxgraph.networks.comm_link_edge;html=1;rounded=0;entryX=0.5;entryY=0;entryDx=0;entryDy=0;exitX=0.5;exitY=1;exitDx=0;exitDy=0;exitPerimeter=0;" parent="1" source="0l798G4drUY80iiuXOU_-37" target="0l798G4drUY80iiuXOU_-32" edge="1">
          <mxGeometry width="100" height="100" relative="1" as="geometry">
            <mxPoint x="1074" y="289" as="sourcePoint" />
            <mxPoint x="1080" y="336" as="targetPoint" />
            <Array as="points">
              <mxPoint x="1030" y="289" />
            </Array>
          </mxGeometry>
        </mxCell>
        <mxCell id="0l798G4drUY80iiuXOU_-53" value="" style="html=1;outlineConnect=0;fillColor=#CCCCCC;strokeColor=#6881B3;gradientColor=none;gradientDirection=north;strokeWidth=2;shape=mxgraph.networks.comm_link_edge;html=1;rounded=0;entryX=1;entryY=1;entryDx=0;entryDy=0;" parent="1" target="0l798G4drUY80iiuXOU_-64" edge="1">
          <mxGeometry width="100" height="100" relative="1" as="geometry">
            <mxPoint x="1403.05" y="422" as="sourcePoint" />
            <mxPoint x="1380.000389574095" y="335.00384649302305" as="targetPoint" />
          </mxGeometry>
        </mxCell>
        <mxCell id="0l798G4drUY80iiuXOU_-55" value="" style="html=1;outlineConnect=0;fillColor=#CCCCCC;strokeColor=#6881B3;gradientColor=none;gradientDirection=north;strokeWidth=2;shape=mxgraph.networks.comm_link_edge;html=1;rounded=0;" parent="1" target="0l798G4drUY80iiuXOU_-34" edge="1">
          <mxGeometry width="100" height="100" relative="1" as="geometry">
            <mxPoint x="1340" y="498.5" as="sourcePoint" />
            <mxPoint x="1385.0515463917527" y="383.5" as="targetPoint" />
            <Array as="points">
              <mxPoint x="1380" y="480" />
            </Array>
          </mxGeometry>
        </mxCell>
        <mxCell id="0l798G4drUY80iiuXOU_-56" value="" style="html=1;outlineConnect=0;fillColor=#CCCCCC;strokeColor=#6881B3;gradientColor=none;gradientDirection=north;strokeWidth=2;shape=mxgraph.networks.comm_link_edge;html=1;rounded=0;" parent="1" source="0l798G4drUY80iiuXOU_-34" target="0l798G4drUY80iiuXOU_-35" edge="1">
          <mxGeometry width="100" height="100" relative="1" as="geometry">
            <mxPoint x="1560" y="440" as="sourcePoint" />
            <mxPoint x="1638" y="306" as="targetPoint" />
          </mxGeometry>
        </mxCell>
        <mxCell id="0l798G4drUY80iiuXOU_-59" value="" style="image;sketch=0;aspect=fixed;html=1;points=[];align=center;fontSize=12;image=img/lib/mscae/Mobile_Engagement.svg;" parent="1" vertex="1">
          <mxGeometry x="1180" y="319" width="34" height="50" as="geometry" />
        </mxCell>
        <mxCell id="0l798G4drUY80iiuXOU_-61" value="" style="html=1;outlineConnect=0;fillColor=#CCCCCC;strokeColor=#6881B3;gradientColor=none;gradientDirection=north;strokeWidth=2;shape=mxgraph.networks.comm_link_edge;html=1;rounded=0;" parent="1" target="0l798G4drUY80iiuXOU_-32" edge="1">
          <mxGeometry width="100" height="100" relative="1" as="geometry">
            <mxPoint x="1110" y="550" as="sourcePoint" />
            <mxPoint x="1050" y="451" as="targetPoint" />
            <Array as="points">
              <mxPoint x="1120" y="510" />
            </Array>
          </mxGeometry>
        </mxCell>
        <mxCell id="0l798G4drUY80iiuXOU_-62" value="" style="html=1;outlineConnect=0;fillColor=#CCCCCC;strokeColor=#6881B3;gradientColor=none;gradientDirection=north;strokeWidth=2;shape=mxgraph.networks.comm_link_edge;html=1;rounded=0;entryX=0;entryY=0.5;entryDx=0;entryDy=0;" parent="1" edge="1">
          <mxGeometry width="100" height="100" relative="1" as="geometry">
            <mxPoint x="1134.5" y="450" as="sourcePoint" />
            <mxPoint x="1184.5" y="372" as="targetPoint" />
          </mxGeometry>
        </mxCell>
        <mxCell id="0l798G4drUY80iiuXOU_-64" value="" style="shape=image;html=1;verticalAlign=top;verticalLabelPosition=bottom;labelBackgroundColor=#ffffff;imageAspect=0;aspect=fixed;image=https://cdn0.iconfinder.com/data/icons/construction-2-21/512/construction-industry-building-08-128.png" parent="1" vertex="1">
          <mxGeometry x="1296.36" y="296" width="64" height="64" as="geometry" />
        </mxCell>
        <mxCell id="0l798G4drUY80iiuXOU_-52" value="" style="html=1;outlineConnect=0;fillColor=#CCCCCC;strokeColor=#6881B3;gradientColor=none;gradientDirection=north;strokeWidth=2;shape=mxgraph.networks.comm_link_edge;html=1;rounded=0;" parent="1" source="0l798G4drUY80iiuXOU_-31" edge="1">
          <mxGeometry width="100" height="100" relative="1" as="geometry">
            <mxPoint x="1340" y="530" as="sourcePoint" />
            <mxPoint x="1215" y="550" as="targetPoint" />
          </mxGeometry>
        </mxCell>
      </root>
    </mxGraphModel>
  </diagram>
</mxfile>
